# Blender 3.1.0
# www.blender.org
mtllib Crate.mtl
o Crate
v -0.173520 0.000000 0.173520
v -0.173520 0.347040 0.173520
v -0.173520 0.000000 -0.173520
v -0.173520 0.347040 -0.173520
v 0.173520 0.000000 0.173520
v 0.173520 0.347040 0.173520
v 0.173520 0.000000 -0.173520
v 0.173520 0.347040 -0.173520
v -0.173520 0.039584 0.133936
v -0.173520 0.307456 0.133936
v -0.173520 0.307456 -0.133936
v -0.173520 0.039584 -0.133936
v -0.133936 0.039584 -0.173520
v -0.133936 0.307456 -0.173520
v 0.133936 0.307456 -0.173520
v 0.133936 0.039584 -0.173520
v 0.173520 0.039584 -0.133936
v 0.173520 0.307456 -0.133936
v 0.173520 0.307456 0.133936
v 0.173520 0.039584 0.133936
v 0.133936 0.039584 0.173520
v 0.133936 0.307456 0.173520
v -0.133936 0.307456 0.173520
v -0.133936 0.039584 0.173520
v 0.133936 0.347040 -0.133936
v -0.133936 0.347040 -0.133936
v -0.133936 0.347040 0.133936
v 0.133936 0.347040 0.133936
v -0.147114 0.039584 -0.133936
v -0.147114 0.039584 0.133936
v 0.133936 0.039584 -0.147019
v -0.133936 0.039584 -0.147019
v 0.147114 0.039584 0.133936
v 0.147114 0.039584 -0.133936
v -0.133936 0.039584 0.147019
v 0.133936 0.039584 0.147019
v -0.147114 0.307456 0.133936
v -0.147114 0.307456 -0.133936
v -0.133936 0.307456 -0.147019
v 0.133936 0.307456 -0.147019
v 0.147114 0.307456 -0.133936
v 0.147114 0.307456 0.133936
v 0.133936 0.307456 0.147019
v -0.133936 0.307456 0.147019
v -0.133936 0.315421 -0.133936
v 0.133936 0.315421 -0.133936
v 0.133936 0.315421 0.133936
v -0.133936 0.315421 0.133936
v -0.163692 0.061257 0.161588
v 0.113199 0.338147 0.161588
v -0.163692 0.061257 0.142012
v 0.113199 0.338147 0.142012
v -0.108173 0.005738 0.161588
v 0.168718 0.282628 0.161587
v -0.108173 0.005738 0.142012
v 0.168718 0.282628 0.142012
v 0.168718 0.061257 -0.163552
v -0.108173 0.338147 -0.163552
v 0.168718 0.061257 -0.143976
v -0.108173 0.338147 -0.143976
v 0.113199 0.005738 -0.163552
v -0.163692 0.282628 -0.163552
v 0.113199 0.005738 -0.143976
v -0.163692 0.282628 -0.143976
v -0.160057 0.061257 -0.167187
v -0.160057 0.338147 0.109703
v -0.140481 0.061257 -0.167187
v -0.140481 0.338147 0.109703
v -0.160057 0.005738 -0.111668
v -0.160057 0.282628 0.165223
v -0.140481 0.005738 -0.111668
v -0.140481 0.282628 0.165223
v 0.165083 0.061257 0.165223
v 0.165083 0.338147 -0.111668
v 0.145507 0.061257 0.165223
v 0.145507 0.338147 -0.111668
v 0.165083 0.005738 0.109703
v 0.165083 0.282628 -0.167187
v 0.145507 0.005738 0.109703
v 0.145507 0.282628 -0.167187
v 0.066968 0.315421 0.133936
v 0.066968 0.315421 -0.133936
v 0.000000 0.315421 -0.133936
v -0.066968 0.315421 -0.133936
v -0.133936 0.315421 -0.133936
v 0.133936 0.315421 -0.133936
v 0.133936 0.315421 0.133936
v -0.133936 0.315421 0.133936
v 0.000000 0.315421 0.133936
v -0.066968 0.315421 0.133936
v -0.133936 0.039584 0.147019
v 0.133936 0.039584 0.147019
v 0.133936 0.307456 0.147019
v -0.133936 0.307456 0.147019
v 0.147114 0.039584 0.133936
v 0.147114 0.039584 -0.133936
v 0.147114 0.307456 -0.133936
v 0.147114 0.307456 0.133936
v 0.133936 0.039584 -0.147019
v -0.133936 0.039584 -0.147019
v -0.133936 0.307456 -0.147019
v 0.133936 0.307456 -0.147019
v -0.147114 0.039584 -0.133936
v -0.147114 0.039584 0.133936
v -0.147114 0.307456 0.133936
v -0.147114 0.307456 -0.133936
v -0.147114 0.039584 -0.066968
v -0.147114 0.039584 0.000000
v -0.147114 0.039584 0.066968
v -0.147114 0.307456 0.066968
v -0.147114 0.307456 0.000000
v -0.147114 0.307456 -0.066968
v -0.066968 0.039584 0.147019
v 0.000000 0.039584 0.147019
v 0.066968 0.039584 0.147019
v 0.066968 0.307456 0.147019
v 0.000000 0.307456 0.147019
v -0.066968 0.307456 0.147019
v 0.147114 0.039584 0.066968
v 0.147114 0.039584 0.000000
v 0.147114 0.039584 -0.066968
v 0.147114 0.307456 -0.066968
v 0.147114 0.307456 0.000000
v 0.147114 0.307456 0.066968
v 0.066968 0.039584 -0.147019
v 0.000000 0.039584 -0.147019
v -0.066968 0.039584 -0.147019
v -0.066968 0.307456 -0.147019
v 0.000000 0.307456 -0.147019
v 0.066968 0.307456 -0.147019
vn -0.0000 -0.0000 0.6941
vn -0.0000 -0.6941 -0.0000
vn 0.6941 -0.0000 -0.0000
vn -0.0000 -0.0000 -0.6941
vn -0.0000 0.6941 -0.0000
vn -0.6941 -0.0000 -0.0000
vn -0.4908 0.4908 -0.0000
vn 0.4908 -0.4908 -0.0000
vn 0.4908 0.4908 -0.0000
vn -0.4908 -0.4908 -0.0000
vn -0.0000 0.4908 -0.4908
vn -0.0000 -0.4908 0.4908
vn -0.0000 0.4908 0.4908
vn -0.0000 -0.4908 -0.4908
vt 0.333217 0.882460
vt 0.478666 0.882460
vt 0.500369 0.885560
vt 0.333217 0.882460
vt 0.478666 0.882460
vt 0.500369 0.885560
vt 0.333217 0.882460
vt 0.478666 0.882460
vt 0.500369 0.885560
vt 0.333217 0.882460
vt 0.478666 0.882460
vt 0.500369 0.885560
vt 0.349807 0.882460
vt 0.462076 0.882460
vt 0.462076 0.882460
vt 0.349807 0.882460
vt 0.349807 0.882460
vt 0.462076 0.882460
vt 0.462076 0.882460
vt 0.349807 0.882460
vt 0.349807 0.882460
vt 0.462076 0.882460
vt 0.462076 0.882460
vt 0.349807 0.882460
vt 0.349807 0.882460
vt 0.462076 0.882460
vt 0.462076 0.882460
vt 0.349807 0.882460
vt 0.500369 0.885560
vt 0.359301 0.904163
vt 0.500369 0.885560
vt 0.359301 0.904163
vt 0.500369 0.885560
vt 0.359301 0.904163
vt 0.500369 0.885560
vt 0.359301 0.904163
vt 0.349807 0.882460
vt 0.349807 0.882460
vt 0.349807 0.882460
vt 0.349807 0.882460
vt 0.349807 0.882460
vt 0.349807 0.882460
vt 0.349807 0.882460
vt 0.349807 0.882460
vt 0.462076 0.882460
vt 0.462076 0.882460
vt 0.462076 0.882460
vt 0.462076 0.882460
vt 0.462076 0.882460
vt 0.462076 0.882460
vt 0.462076 0.882460
vt 0.462076 0.882460
vt 0.346049 0.904163
vt 0.346049 0.904163
vt 0.346049 0.904163
vt 0.346049 0.904163
vt 0.382144 0.874709
vt 0.303084 0.882460
vt 0.498192 0.874709
vt 0.419132 0.882460
vt 0.382144 0.874709
vt 0.498192 0.874709
vt 0.279815 0.882460
vt 0.395863 0.882460
vt 0.279815 0.882460
vt 0.395863 0.882460
vt 0.382144 0.874709
vt 0.303084 0.882460
vt 0.498192 0.874709
vt 0.419132 0.882460
vt 0.382144 0.874709
vt 0.498192 0.874709
vt 0.279815 0.882460
vt 0.395863 0.882460
vt 0.279815 0.882460
vt 0.395863 0.882460
vt 0.382144 0.874709
vt 0.303084 0.882460
vt 0.498192 0.874709
vt 0.419132 0.882460
vt 0.382144 0.874709
vt 0.498192 0.874709
vt 0.279815 0.882460
vt 0.395863 0.882460
vt 0.279815 0.882460
vt 0.395863 0.882460
vt 0.382144 0.874709
vt 0.303084 0.882460
vt 0.498192 0.874709
vt 0.419132 0.882460
vt 0.382144 0.874709
vt 0.498192 0.874709
vt 0.279815 0.882460
vt 0.395863 0.882460
vt 0.279815 0.882460
vt 0.395863 0.882460
vt 0.409607 0.865408
vt 0.383254 0.865408
vt 0.409607 0.865408
vt 0.383254 0.865408
vt 0.383254 0.865408
vt 0.360001 0.868508
vt 0.383254 0.865408
vt 0.360001 0.868508
vt 0.383254 0.865408
vt 0.409607 0.865408
vt 0.409607 0.865408
vt 0.383254 0.865408
vt 0.383254 0.865408
vt 0.360001 0.868508
vt 0.383254 0.865408
vt 0.360001 0.868508
vt 0.300201 0.897962
vt 0.205639 0.874709
vt 0.317908 0.874709
vt 0.412470 0.897962
vt 0.300201 0.897962
vt 0.300201 0.897962
vt 0.412470 0.897962
vt 0.412470 0.897962
vt 0.247494 0.891761
vt 0.247494 0.891761
vt 0.359763 0.891761
vt 0.359763 0.891761
vt 0.247494 0.891761
vt 0.205639 0.874709
vt 0.317908 0.874709
vt 0.359763 0.891761
vt 0.247494 0.891761
vt 0.300201 0.897962
vt 0.247494 0.891761
vt 0.300201 0.897962
vt 0.205639 0.874709
vt 0.247494 0.891761
vt 0.317908 0.874709
vt 0.359763 0.891761
vt 0.359763 0.891761
vt 0.412470 0.897962
vt 0.359763 0.891761
vt 0.412470 0.897962
vt 0.300201 0.897962
vt 0.205639 0.874709
vt 0.247494 0.891761
vt 0.205639 0.874709
vt 0.205639 0.874709
vt 0.247494 0.891761
vt 0.317908 0.874709
vt 0.359763 0.891761
vt 0.359763 0.891761
vt 0.317908 0.874709
vt 0.412470 0.897962
vt 0.317908 0.874709
vt 0.300201 0.897962
vt 0.247494 0.891761
vt 0.205639 0.874709
vt 0.247494 0.891761
vt 0.300201 0.897962
vt 0.205639 0.874709
vt 0.412470 0.897962
vt 0.317908 0.874709
vt 0.317908 0.874709
vt 0.359763 0.891761
vt 0.412470 0.897962
vt 0.359763 0.891761
vt 0.247494 0.891761
vt 0.300201 0.897962
vt 0.205639 0.874709
vt 0.300201 0.897962
vt 0.247494 0.891761
vt 0.205639 0.874709
vt 0.359763 0.891761
vt 0.317908 0.874709
vt 0.317908 0.874709
vt 0.412470 0.897962
vt 0.359763 0.891761
vt 0.412470 0.897962
s 1
usemtl Material.005
f 17/21/1 18/22/1 41/49/1 34/42/1
f 10/14/2 11/15/2 38/46/2 37/45/2
f 13/17/3 14/18/3 39/47/3 32/40/3
f 9/13/4 10/14/4 37/45/4 30/38/4
f 16/20/5 13/17/5 32/40/5 31/39/5
f 1/1/6 2/2/6 10/14/6 9/13/6
f 2/2/6 4/5/6 11/15/6 10/14/6
f 4/5/6 3/4/6 12/16/6 11/15/6
f 3/4/6 1/1/6 9/13/6 12/16/6
f 3/4/4 4/5/4 14/18/4 13/17/4
f 4/5/4 8/11/4 15/19/4 14/18/4
f 8/11/4 7/10/4 16/20/4 15/19/4
f 7/10/4 3/4/4 13/17/4 16/20/4
f 7/10/3 8/11/3 18/22/3 17/21/3
f 8/11/3 6/8/3 19/23/3 18/22/3
f 6/8/3 5/7/3 20/24/3 19/23/3
f 5/7/3 7/10/3 17/21/3 20/24/3
f 5/7/1 6/8/1 22/26/1 21/25/1
f 6/8/1 2/2/1 23/27/1 22/26/1
f 2/2/1 1/1/1 24/28/1 23/27/1
f 1/1/1 5/7/1 21/25/1 24/28/1
f 8/12/5 4/6/5 26/31/5 25/29/5
f 4/6/5 2/3/5 27/33/5 26/31/5
f 2/3/5 6/9/5 28/35/5 27/33/5
f 6/9/5 8/12/5 25/29/5 28/35/5
f 104/126/6 105/127/6 110/135/6 109/133/6
f 107/129/6 112/139/6 106/128/6 103/125/6
f 125/165/4 130/175/4 102/124/4 99/121/4
f 119/153/3 124/163/3 98/120/3 95/117/3
f 84/103/5 85/105/5 88/108/5 90/111/5
f 14/18/2 15/19/2 40/48/2 39/47/2
f 21/25/6 22/26/6 43/51/6 36/44/6
f 11/15/1 12/16/1 29/37/1 38/46/1
f 18/22/2 19/23/2 42/50/2 41/49/2
f 25/30/1 26/32/1 45/53/1 46/54/1
f 20/24/5 17/21/5 34/42/5 33/41/5
f 15/19/6 16/20/6 31/39/6 40/48/6
f 22/26/2 23/27/2 44/52/2 43/51/2
f 12/16/5 9/13/5 30/38/5 29/37/5
f 19/23/4 20/24/4 33/41/4 42/50/4
f 28/36/6 25/30/6 46/54/6 47/55/6
f 23/27/3 24/28/3 35/43/3 44/52/3
f 26/32/3 27/34/3 48/56/3 45/53/3
f 27/34/4 28/36/4 47/55/4 48/56/4
f 24/28/5 21/25/5 36/44/5 35/43/5
f 49/57/7 50/59/7 52/62/7 51/61/7
f 55/65/8 56/66/8 54/64/8 53/63/8
f 53/63/1 54/64/1 50/60/1 49/58/1
f 57/67/9 58/69/9 60/72/9 59/71/9
f 63/75/10 64/76/10 62/74/10 61/73/10
f 61/73/4 62/74/4 58/70/4 57/68/4
f 65/77/11 66/79/11 68/82/11 67/81/11
f 71/85/12 72/86/12 70/84/12 69/83/12
f 69/83/6 70/84/6 66/80/6 65/78/6
f 73/87/13 74/89/13 76/92/13 75/91/13
f 79/95/14 80/96/14 78/94/14 77/93/14
f 77/93/3 78/94/3 74/90/3 73/88/3
f 86/106/5 82/99/5 81/97/5 87/107/5
f 82/100/5 83/101/5 89/109/5 81/98/5
f 83/102/5 84/104/5 90/112/5 89/110/5
f 113/141/1 118/151/1 94/116/1 91/113/1
f 109/134/6 110/136/6 111/137/6 108/131/6
f 108/132/6 111/138/6 112/140/6 107/130/6
f 92/114/1 93/115/1 116/147/1 115/145/1
f 115/146/1 116/148/1 117/149/1 114/143/1
f 114/144/1 117/150/1 118/152/1 113/142/1
f 96/118/3 97/119/3 122/159/3 121/157/3
f 121/158/3 122/160/3 123/161/3 120/155/3
f 120/156/3 123/162/3 124/164/3 119/154/3
f 100/122/4 101/123/4 128/171/4 127/169/4
f 127/170/4 128/172/4 129/173/4 126/167/4
f 126/168/4 129/174/4 130/176/4 125/166/4
