# Blender 3.1.0
# www.blender.org
mtllib Garland.mtl
o Garland
v 1.023224 1.138926 -0.058208
v -1.006537 0.996682 0.064277
v 1.023934 1.138873 0.057496
v -1.020177 0.995970 -0.050619
v 0.907847 1.147605 -0.057496
v -0.891797 1.002671 0.050619
v 0.908557 1.147552 0.058208
v -0.905436 1.001959 -0.064277
v -0.942420 -0.001333 0.049022
v -0.952822 -0.001875 -0.038605
v -0.865314 0.002692 -0.049022
v -0.854912 0.003235 0.038605
v 0.836286 0.004902 0.044393
v 0.835745 0.004943 -0.043850
v 0.923738 -0.001676 -0.044393
v 0.924280 -0.001717 0.043850
v -0.901447 0.851149 0.015279
v -0.897677 0.881615 0.015279
v -0.901447 0.851149 -0.015279
v -0.897677 0.881615 -0.015279
v 0.924039 1.086417 0.015279
v 0.908813 1.115449 0.015279
v 0.924039 1.086417 -0.015279
v 0.908813 1.115449 -0.015279
v 0.491667 0.851075 -0.015279
v 0.019705 0.757191 -0.015279
v -0.438392 0.776301 -0.015279
v -0.435889 0.806818 -0.015279
v 0.017113 0.787706 -0.015279
v 0.475400 0.879885 -0.015279
v -0.438392 0.776301 0.015279
v 0.019705 0.757191 0.015279
v 0.491667 0.851075 0.015279
v 0.475400 0.879885 0.015279
v 0.017113 0.787706 0.015279
v -0.435889 0.806818 0.015279
v -0.842823 0.856900 -0.007297
v -0.842823 0.856900 0.013265
v -0.646292 0.818535 0.013265
v -0.790695 0.601373 0.002984
v -0.646292 0.818535 -0.007297
v -0.640546 0.820976 -0.007297
v -0.640546 0.820976 0.013265
v -0.441708 0.797311 0.013265
v -0.569586 0.570025 0.002984
v -0.441708 0.797311 -0.007297
v -0.427323 0.787221 -0.007297
v -0.427323 0.787221 0.013265
v -0.227229 0.779546 0.013265
v -0.336506 0.542754 0.002984
v -0.227229 0.779546 -0.007297
v -0.201979 0.768845 -0.007297
v -0.201979 0.768845 0.013265
v -0.001744 0.767329 0.013265
v -0.103684 0.527287 0.002984
v -0.001744 0.767329 -0.007297
v 0.017922 0.772190 -0.007297
v 0.017922 0.772190 0.013265
v 0.215363 0.805565 0.013265
v 0.156780 0.551440 0.002984
v 0.215363 0.805565 -0.007297
v 0.235620 0.815116 -0.007297
v 0.235620 0.815116 0.013265
v 0.433060 0.848492 0.013265
v 0.374477 0.594366 0.002984
v 0.433060 0.848492 -0.007297
v 0.450497 0.853742 -0.007297
v 0.450497 0.853742 0.013265
v 0.631286 0.939833 0.013265
v 0.644424 0.679374 0.002984
v 0.631286 0.939833 -0.007297
v 0.649799 0.956811 -0.007297
v 0.649799 0.956811 0.013265
v 0.829664 1.044818 0.013265
v 0.845567 0.784513 0.002984
v 0.829664 1.044818 -0.007297
vn -0.9908 -0.0655 0.1180
vn -0.1172 -0.0199 -0.9929
vn 0.9923 0.0380 -0.1180
vn 0.1186 -0.0076 0.9929
vn -0.9980 0.0630 0.0062
vn -0.0521 0.9986 -0.0000
vn 0.0750 0.9972 -0.0000
vn 0.0052 -0.0124 0.9999
vn 0.9962 -0.0870 -0.0062
vn -0.0070 -0.0115 -0.9999
vn -0.0000 -0.0000 -1.0000
vn -0.0000 -0.0000 1.0000
vn 0.4781 -0.8783 -0.0000
vn 0.1599 0.9871 -0.0000
vn -0.4775 0.8786 -0.0000
vn -0.1972 0.9804 -0.0000
vn 0.0422 0.9991 -0.0000
vn -0.1596 -0.9872 -0.0000
vn -0.0417 -0.9991 -0.0000
vn 0.1951 -0.9808 -0.0000
vn -0.0082 -0.0419 0.9991
vn -0.0082 -0.0419 -0.9991
vn 0.1916 0.9815 -0.0000
vn 0.8327 -0.5537 -0.0000
vn -0.9798 -0.1999 -0.0000
vn -0.0050 -0.0424 0.9991
vn -0.0050 -0.0424 -0.9991
vn 0.1182 0.9930 -0.0000
vn 0.8715 -0.4903 -0.0000
vn -0.9623 -0.2721 -0.0000
vn -0.0016 -0.0426 0.9991
vn -0.0016 -0.0426 -0.9991
vn 0.0383 0.9993 -0.0000
vn 0.9080 -0.4190 -0.0000
vn -0.9374 -0.3482 -0.0000
vn -0.0003 -0.0427 0.9991
vn -0.0003 -0.0427 -0.9991
vn 0.0076 1.0000 -0.0000
vn 0.9204 -0.3909 -0.0000
vn -0.9262 -0.3769 -0.0000
vn 0.0071 -0.0421 0.9991
vn 0.0071 -0.0421 -0.9991
vn -0.1667 0.9860 -0.0000
vn 0.9744 -0.2246 -0.0000
vn -0.8465 -0.5324 -0.0000
vn 0.0183 -0.0385 0.9991
vn 0.0183 -0.0385 -0.9991
vn -0.4299 0.9029 -0.0000
vn 0.9987 0.0504 -0.0000
vn -0.6686 -0.7436 -0.0000
vn 0.0187 -0.0383 0.9991
vn 0.0187 -0.0383 -0.9991
vn -0.4395 0.8982 -0.0000
vn 0.9981 0.0610 -0.0000
vn -0.6607 -0.7507 -0.0000
vt 0.333875 0.866048
vt 0.318893 0.866048
vt 0.333875 0.866048
vt 0.318893 0.866048
vt 0.333875 0.866048
vt 0.318893 0.866048
vt 0.333875 0.866048
vt 0.318893 0.866048
vt 0.215468 0.866048
vt 0.215468 0.866048
vt 0.215468 0.866048
vt 0.215468 0.866048
vt 0.215468 0.866048
vt 0.215468 0.866048
vt 0.215468 0.866048
vt 0.215468 0.866048
vt 0.558444 0.882037
vt 0.558444 0.882037
vt 0.558444 0.882037
vt 0.558444 0.882037
vt 0.558444 0.882037
vt 0.558444 0.882037
vt 0.558444 0.882037
vt 0.558444 0.882037
vt 0.558444 0.882037
vt 0.558444 0.882037
vt 0.558444 0.882037
vt 0.558444 0.882037
vt 0.558444 0.882037
vt 0.558444 0.882037
vt 0.558444 0.882037
vt 0.558444 0.882037
vt 0.558444 0.882037
vt 0.558444 0.882037
vt 0.558444 0.882037
vt 0.558444 0.882037
vt 0.609505 0.125961
vt 0.609505 0.125961
vt 0.609505 0.125961
vt 0.609505 0.125961
vt 0.609505 0.125961
vt 0.137034 0.629191
vt 0.137034 0.629191
vt 0.137034 0.629191
vt 0.137034 0.629191
vt 0.137034 0.629191
vt 0.379422 0.379422
vt 0.379422 0.379422
vt 0.379422 0.379422
vt 0.379422 0.379422
vt 0.379422 0.379422
vt 0.609505 0.125961
vt 0.609505 0.125961
vt 0.609505 0.125961
vt 0.609505 0.125961
vt 0.609505 0.125961
vt 0.137034 0.629191
vt 0.137034 0.629191
vt 0.137034 0.629191
vt 0.137034 0.629191
vt 0.137034 0.629191
vt 0.379422 0.379422
vt 0.379422 0.379422
vt 0.379422 0.379422
vt 0.379422 0.379422
vt 0.379422 0.379422
vt 0.609505 0.125961
vt 0.609505 0.125961
vt 0.609505 0.125961
vt 0.609505 0.125961
vt 0.609505 0.125961
vt 0.137034 0.629191
vt 0.137034 0.629191
vt 0.137034 0.629191
vt 0.137034 0.629191
vt 0.137034 0.629191
s 1
usemtl Material.005
f 9/9/1 2/2/1 4/4/1 10/10/1
f 10/10/2 4/4/2 8/8/2 11/11/2
f 11/11/3 8/8/3 6/6/3 12/12/3
f 12/12/4 6/6/4 2/2/4 9/9/4
f 13/13/5 7/7/5 5/5/5 14/14/5
f 8/8/6 4/4/6 2/2/6 6/6/6
f 1/1/7 5/5/7 7/7/7 3/3/7
f 16/16/8 3/3/8 7/7/8 13/13/8
f 15/15/9 1/1/9 3/3/9 16/16/9
f 14/14/10 5/5/10 1/1/10 15/15/10
f 25/25/11 30/30/11 24/24/11 23/23/11
f 31/31/12 36/36/12 18/18/12 17/17/12
f 25/25/13 23/23/13 21/21/13 33/33/13
f 28/28/14 20/20/14 18/18/14 36/36/14
f 24/24/15 30/30/15 34/34/15 22/22/15
f 30/30/16 29/29/16 35/35/16 34/34/16
f 29/29/17 28/28/17 36/36/17 35/35/17
f 19/19/18 27/27/18 31/31/18 17/17/18
f 27/27/19 26/26/19 32/32/19 31/31/19
f 26/26/20 25/25/20 33/33/20 32/32/20
f 21/21/12 22/22/12 34/34/12 33/33/12
f 33/33/12 34/34/12 35/35/12 32/32/12
f 32/32/12 35/35/12 36/36/12 31/31/12
f 19/19/11 20/20/11 28/28/11 27/27/11
f 27/27/11 28/28/11 29/29/11 26/26/11
f 26/26/11 29/29/11 30/30/11 25/25/11
f 38/38/21 40/40/21 39/39/21
f 37/37/22 41/41/22 40/40/22
f 39/39/23 41/41/23 37/37/23 38/38/23
f 40/40/24 41/41/24 39/39/24
f 38/38/25 37/37/25 40/40/25
f 43/43/26 45/45/26 44/44/26
f 42/42/27 46/46/27 45/45/27
f 44/44/28 46/46/28 42/42/28 43/43/28
f 45/45/29 46/46/29 44/44/29
f 43/43/30 42/42/30 45/45/30
f 48/48/31 50/50/31 49/49/31
f 47/47/32 51/51/32 50/50/32
f 49/49/33 51/51/33 47/47/33 48/48/33
f 50/50/34 51/51/34 49/49/34
f 48/48/35 47/47/35 50/50/35
f 53/53/36 55/55/36 54/54/36
f 52/52/37 56/56/37 55/55/37
f 54/54/38 56/56/38 52/52/38 53/53/38
f 55/55/39 56/56/39 54/54/39
f 53/53/40 52/52/40 55/55/40
f 58/58/41 60/60/41 59/59/41
f 57/57/42 61/61/42 60/60/42
f 59/59/43 61/61/43 57/57/43 58/58/43
f 60/60/44 61/61/44 59/59/44
f 58/58/45 57/57/45 60/60/45
f 63/63/41 65/65/41 64/64/41
f 62/62/42 66/66/42 65/65/42
f 64/64/43 66/66/43 62/62/43 63/63/43
f 65/65/44 66/66/44 64/64/44
f 63/63/45 62/62/45 65/65/45
f 68/68/46 70/70/46 69/69/46
f 67/67/47 71/71/47 70/70/47
f 69/69/48 71/71/48 67/67/48 68/68/48
f 70/70/49 71/71/49 69/69/49
f 68/68/50 67/67/50 70/70/50
f 73/73/51 75/75/51 74/74/51
f 72/72/52 76/76/52 75/75/52
f 74/74/53 76/76/53 72/72/53 73/73/53
f 75/75/54 76/76/54 74/74/54
f 73/73/55 72/72/55 75/75/55
