# Blender 3.1.0
# www.blender.org
mtllib Hay_Pile.mtl
o Hay_Pile
v -0.001766 0.661078 -0.093176
v -0.001766 0.597142 -0.184308
v -0.001766 0.500428 -0.263823
v -0.001622 0.372987 -0.327017
v -0.001684 0.207746 -0.366145
v 0.047021 0.660641 -0.079936
v 0.092658 0.597142 -0.159007
v 0.131360 0.499645 -0.225798
v 0.162379 0.373390 -0.279416
v 0.182369 0.209282 -0.313853
v 0.218931 -0.000444 -0.379530
v 0.082858 0.661078 -0.044319
v 0.161781 0.597142 -0.089884
v 0.230226 0.500428 -0.129670
v 0.277378 0.372987 -0.168836
v 0.317349 0.208255 -0.180002
v 0.348446 0.000000 -0.210312
v 0.095950 0.661078 0.004539
v 0.186890 0.597142 0.004339
v 0.258077 0.500428 -0.003843
v 0.321814 0.372987 -0.003843
v 0.359869 0.208237 -0.003519
v 0.441781 -0.000505 -0.003264
v 0.082845 0.661078 0.053323
v 0.152513 0.596174 0.090226
v 0.220011 0.499510 0.129268
v 0.277321 0.372987 0.162207
v 0.311059 0.207747 0.181849
v 0.355097 -0.007890 0.207111
v 0.047092 0.661078 0.089076
v 0.084138 0.597142 0.159704
v 0.123896 0.500428 0.228566
v 0.156162 0.372987 0.283221
v 0.174897 0.208239 0.316858
v 0.201220 -0.007890 0.359941
v -0.001753 0.660641 0.102115
v -0.009786 0.596088 0.183979
v -0.009354 0.499630 0.262011
v -0.000042 0.373389 0.316905
v 0.007037 0.207916 0.360781
v 0.008100 -0.007890 0.451860
v -0.050490 0.660641 0.088958
v -0.089350 0.595641 0.154409
v -0.129773 0.500428 0.224175
v -0.159853 0.373326 0.276593
v -0.179723 0.205582 0.314744
v -0.203091 -0.007890 0.355531
v -0.001766 0.683419 0.004539
v -0.086208 0.661078 0.053131
v -0.158277 0.596282 0.086442
v -0.227739 0.500428 0.126209
v -0.276664 0.373321 0.155389
v -0.316785 0.205582 0.177671
v -0.380314 -0.007890 0.202359
v -0.099426 0.661078 0.004483
v -0.180512 0.597142 0.003012
v -0.259876 0.500428 0.003259
v -0.320054 0.373326 0.003120
v -0.360735 0.208605 -0.007972
v -0.401166 -0.001241 -0.000063
v -0.086233 0.660642 -0.044207
v -0.164933 0.597142 -0.089978
v -0.223922 0.500428 -0.130922
v -0.276231 0.373327 -0.160931
v -0.311236 0.208488 -0.180898
v -0.345729 -0.001060 -0.206270
v -0.050527 0.660641 -0.079912
v -0.095994 0.597142 -0.158984
v -0.124947 0.499666 -0.226799
v -0.157915 0.372987 -0.283643
v -0.189214 0.205582 -0.320131
v -0.224852 -0.007890 -0.377919
v -0.001425 -0.006464 -0.414092
v 0.201672 0.063029 -0.349639
v 0.317731 0.063984 -0.192348
v 0.406779 0.063149 -0.003293
v 0.323813 0.057336 0.189049
v 0.182344 0.058543 0.328444
v 0.008303 0.057336 0.415893
v -0.184343 0.058551 0.323265
v -0.347924 0.058550 0.183671
v -0.365409 0.063162 -0.000050
v -0.314967 0.063302 -0.188447
v -0.207052 0.058534 -0.346286
v -0.001609 0.057336 -0.380477
vn -0.0021 0.7196 -0.6944
vn -0.0002 0.9024 -0.4308
vn 0.2167 0.9012 -0.3753
vn 0.3479 0.7187 -0.6020
vn -0.0047 0.3230 -0.9464
vn 0.0064 0.2002 -0.9797
vn 0.4964 0.2022 -0.8442
vn 0.4751 0.3503 -0.8072
vn -0.0013 0.5331 -0.8460
vn 0.4249 0.5290 -0.7346
vn 0.0063 0.3401 -0.9404
vn 0.4733 0.3324 -0.8158
vn -0.0012 1.0000 -0.0002
vn 0.7414 0.5256 -0.4172
vn 0.8117 0.3323 -0.4803
vn 0.3725 0.9021 -0.2180
vn 0.8523 0.1983 -0.4840
vn 0.6046 0.7179 -0.3450
vn 0.8128 0.3232 -0.4847
vn 0.9774 0.2114 0.0007
vn 0.9313 0.3643 -0.0059
vn 0.7082 0.7050 0.0386
vn 0.8519 0.5235 0.0175
vn 0.9426 0.3337 0.0078
vn 0.4385 0.8986 0.0177
vn 0.8152 0.3375 0.4707
vn 0.8395 0.1865 0.5103
vn 0.3937 0.8856 0.2463
vn 0.6131 0.6948 0.3759
vn 0.7882 0.3247 0.5228
vn 0.7310 0.5296 0.4304
vn 0.4161 0.5337 0.7362
vn 0.4599 0.3370 0.8215
vn 0.2328 0.8848 0.4037
vn 0.5068 0.1962 0.8394
vn 0.3547 0.7014 0.6182
vn 0.5318 0.3238 0.7825
vn 0.0035 0.2331 0.9725
vn 0.0088 0.3820 0.9241
vn -0.0335 0.7026 0.7108
vn -0.0299 0.5203 0.8535
vn -0.0107 0.3292 0.9442
vn -0.0127 0.8850 0.4655
vn -0.2458 0.8791 0.4083
vn -0.4744 0.3294 0.8164
vn -0.4985 0.2059 0.8421
vn -0.3751 0.6990 0.6089
vn -0.5025 0.3281 0.7999
vn -0.4391 0.5213 0.7318
vn -0.7380 0.5244 0.4247
vn -0.8194 0.3308 0.4682
vn -0.4013 0.8826 0.2448
vn -0.8559 0.1877 0.4819
vn -0.6158 0.7025 0.3566
vn -0.8333 0.3375 0.4377
vn -0.4559 0.8900 0.0126
vn -0.7097 0.7043 0.0165
vn -0.9862 0.1607 -0.0388
vn -0.9549 0.2914 -0.0576
vn -0.8552 0.5182 0.0078
vn -0.9436 0.3312 0.0030
vn -0.3839 0.8992 -0.2101
vn -0.8185 0.3415 -0.4620
vn -0.8733 0.1646 -0.4586
vn -0.6237 0.7040 -0.3397
vn -0.8606 0.2880 -0.4201
vn -0.7424 0.5164 -0.4268
vn -0.3596 0.7098 -0.6057
vn -0.4287 0.5241 -0.7358
vn -0.4763 0.3474 -0.8077
vn -0.2191 0.9015 -0.3733
vn -0.5135 0.1978 -0.8350
vn -0.4992 0.3385 -0.7976
vn -0.4523 0.4899 -0.7453
vn -0.0114 0.4618 -0.8869
vn -0.7937 0.4730 -0.3825
vn -0.8765 0.4778 -0.0587
vn -0.7612 0.5001 0.4128
vn -0.4751 0.4759 0.7401
vn 0.0060 0.5039 0.8637
vn 0.5070 0.4726 0.7209
vn 0.7263 0.4757 0.4962
vn 0.8659 0.5002 -0.0002
vn 0.7589 0.4681 -0.4528
vn 0.4368 0.4903 -0.7542
vt 0.338128 0.123731
vt 0.351392 0.123731
vt 0.364657 0.123731
vt 0.377922 0.123731
vt 0.391186 0.123731
vt 0.338128 0.123731
vt 0.351392 0.123731
vt 0.364657 0.123731
vt 0.377922 0.123731
vt 0.391186 0.123731
vt 0.404451 0.123731
vt 0.338128 0.123731
vt 0.351392 0.123731
vt 0.364657 0.123731
vt 0.377922 0.123731
vt 0.391186 0.123731
vt 0.404451 0.123731
vt 0.338128 0.123731
vt 0.351392 0.123731
vt 0.364657 0.123731
vt 0.377922 0.123731
vt 0.391186 0.123731
vt 0.404451 0.123731
vt 0.338128 0.123731
vt 0.351392 0.123731
vt 0.364657 0.123731
vt 0.377922 0.123731
vt 0.391186 0.123731
vt 0.404451 0.123731
vt 0.338128 0.123731
vt 0.351392 0.123731
vt 0.364657 0.123731
vt 0.377922 0.123731
vt 0.391186 0.123731
vt 0.404451 0.123731
vt 0.338128 0.123731
vt 0.351392 0.123731
vt 0.364657 0.123731
vt 0.377922 0.123731
vt 0.391186 0.123731
vt 0.404451 0.123731
vt 0.338128 0.123731
vt 0.351392 0.123731
vt 0.364657 0.123731
vt 0.377922 0.123731
vt 0.391186 0.123731
vt 0.404451 0.123731
vt 0.324863 0.123731
vt 0.338128 0.123731
vt 0.351392 0.123731
vt 0.364657 0.123731
vt 0.377922 0.123731
vt 0.391186 0.123731
vt 0.404451 0.123731
vt 0.338128 0.123731
vt 0.351392 0.123731
vt 0.364657 0.123731
vt 0.377922 0.123731
vt 0.391186 0.123731
vt 0.404451 0.123731
vt 0.338128 0.123731
vt 0.351392 0.123731
vt 0.364657 0.123731
vt 0.377922 0.123731
vt 0.391186 0.123731
vt 0.404451 0.123731
vt 0.338128 0.123731
vt 0.351392 0.123731
vt 0.364657 0.123731
vt 0.377922 0.123731
vt 0.391186 0.123731
vt 0.404451 0.123731
vt 0.404451 0.123731
vt 0.400466 0.123731
vt 0.400466 0.123731
vt 0.400466 0.123731
vt 0.400466 0.123731
vt 0.400466 0.123731
vt 0.400466 0.123731
vt 0.400466 0.123731
vt 0.400466 0.123731
vt 0.400466 0.123731
vt 0.400466 0.123731
vt 0.400466 0.123731
vt 0.400466 0.123731
s 1
usemtl Material.005
f 2/2/1 1/1/2 6/6/3 7/7/4
f 85/85/5 5/5/6 10/10/7 74/74/8
f 3/3/9 2/2/1 7/7/4 8/8/10
f 4/4/11 3/3/9 8/8/10 9/9/12
f 1/1/2 48/48/13 6/6/3
f 5/5/6 4/4/11 9/9/12 10/10/7
f 9/9/12 8/8/10 14/14/14 15/15/15
f 6/6/3 48/48/13 12/12/16
f 10/10/7 9/9/12 15/15/15 16/16/17
f 7/7/4 6/6/3 12/12/16 13/13/18
f 74/74/8 10/10/7 16/16/17 75/75/19
f 8/8/10 7/7/4 13/13/18 14/14/14
f 75/75/19 16/16/17 22/22/20 76/76/21
f 14/14/14 13/13/18 19/19/22 20/20/23
f 15/15/15 14/14/14 20/20/23 21/21/24
f 12/12/16 48/48/13 18/18/25
f 16/16/17 15/15/15 21/21/24 22/22/20
f 13/13/18 12/12/16 18/18/25 19/19/22
f 22/22/20 21/21/24 27/27/26 28/28/27
f 19/19/22 18/18/25 24/24/28 25/25/29
f 76/76/21 22/22/20 28/28/27 77/77/30
f 20/20/23 19/19/22 25/25/29 26/26/31
f 21/21/24 20/20/23 26/26/31 27/27/26
f 18/18/25 48/48/13 24/24/28
f 27/27/26 26/26/31 32/32/32 33/33/33
f 24/24/28 48/48/13 30/30/34
f 28/28/27 27/27/26 33/33/33 34/34/35
f 25/25/29 24/24/28 30/30/34 31/31/36
f 77/77/30 28/28/27 34/34/35 78/78/37
f 26/26/31 25/25/29 31/31/36 32/32/32
f 78/78/37 34/34/35 40/40/38 79/79/39
f 32/32/32 31/31/36 37/37/40 38/38/41
f 33/33/33 32/32/32 38/38/41 39/39/42
f 30/30/34 48/48/13 36/36/43
f 34/34/35 33/33/33 39/39/42 40/40/38
f 31/31/36 30/30/34 36/36/43 37/37/40
f 36/36/43 48/48/13 42/42/44
f 40/40/38 39/39/42 45/45/45 46/46/46
f 37/37/40 36/36/43 42/42/44 43/43/47
f 79/79/39 40/40/38 46/46/46 80/80/48
f 38/38/41 37/37/40 43/43/47 44/44/49
f 39/39/42 38/38/41 44/44/49 45/45/45
f 45/45/45 44/44/49 51/51/50 52/52/51
f 42/42/44 48/48/13 49/49/52
f 46/46/46 45/45/45 52/52/51 53/53/53
f 43/43/47 42/42/44 49/49/52 50/50/54
f 80/80/48 46/46/46 53/53/53 81/81/55
f 44/44/49 43/43/47 50/50/54 51/51/50
f 50/50/54 49/49/52 55/55/56 56/56/57
f 81/81/55 53/53/53 59/59/58 82/82/59
f 51/51/50 50/50/54 56/56/57 57/57/60
f 52/52/51 51/51/50 57/57/60 58/58/61
f 49/49/52 48/48/13 55/55/56
f 53/53/53 52/52/51 58/58/61 59/59/58
f 55/55/56 48/48/13 61/61/62
f 59/59/58 58/58/61 64/64/63 65/65/64
f 56/56/57 55/55/56 61/61/62 62/62/65
f 82/82/59 59/59/58 65/65/64 83/83/66
f 57/57/60 56/56/57 62/62/65 63/63/67
f 58/58/61 57/57/60 63/63/67 64/64/63
f 63/63/67 62/62/65 68/68/68 69/69/69
f 64/64/63 63/63/67 69/69/69 70/70/70
f 61/61/62 48/48/13 67/67/71
f 65/65/64 64/64/63 70/70/70 71/71/72
f 62/62/65 61/61/62 67/67/71 68/68/68
f 83/83/66 65/65/64 71/71/72 84/84/73
f 68/68/68 67/67/71 1/1/2 2/2/1
f 84/84/73 71/71/72 5/5/6 85/85/5
f 69/69/69 68/68/68 2/2/1 3/3/9
f 70/70/70 69/69/69 3/3/9 4/4/11
f 67/67/71 48/48/13 1/1/2
f 71/71/72 70/70/70 4/4/11 5/5/6
f 72/72/74 84/84/73 85/85/5 73/73/75
f 66/66/76 83/83/66 84/84/73 72/72/74
f 60/60/77 82/82/59 83/83/66 66/66/76
f 54/54/78 81/81/55 82/82/59 60/60/77
f 47/47/79 80/80/48 81/81/55 54/54/78
f 41/41/80 79/79/39 80/80/48 47/47/79
f 35/35/81 78/78/37 79/79/39 41/41/80
f 29/29/82 77/77/30 78/78/37 35/35/81
f 23/23/83 76/76/21 77/77/30 29/29/82
f 17/17/84 75/75/19 76/76/21 23/23/83
f 11/11/85 74/74/8 75/75/19 17/17/84
f 73/73/75 85/85/5 74/74/8 11/11/85
