# Blender 3.1.0
# www.blender.org
mtllib Hay_Bale.mtl
o Hay_Bale
v -0.174170 -0.007562 0.294433
v -0.174170 0.279546 0.294433
v -0.174170 -0.007562 -0.294433
v -0.174170 0.279546 -0.294433
v 0.174170 -0.007562 0.294433
v 0.174170 0.279546 0.294433
v 0.174170 -0.007562 -0.294433
v 0.174170 0.279546 -0.294433
v -0.160188 0.006420 -0.159024
v -0.160188 0.006420 -0.099957
v -0.160188 0.006420 0.121126
v -0.160188 0.006420 0.180193
v -0.160188 0.265564 0.180193
v -0.160188 0.265564 0.121126
v -0.160188 0.265564 -0.099957
v -0.160188 0.265564 -0.159025
v 0.160188 0.006420 0.180193
v 0.160188 0.006420 0.121126
v 0.160188 0.006420 -0.099957
v 0.160188 0.006420 -0.159024
v 0.160188 0.265564 -0.159025
v 0.160188 0.265564 -0.099957
v 0.160188 0.265564 0.121126
v 0.160188 0.265564 0.180193
v -0.177936 -0.011328 -0.159024
v -0.177936 -0.011328 -0.099957
v -0.177936 -0.011328 0.121126
v -0.177936 -0.011328 0.180193
v -0.177936 0.283312 0.180193
v -0.177936 0.283312 0.121126
v -0.177936 0.283312 -0.099957
v -0.177936 0.283312 -0.159025
v 0.177936 -0.011328 0.180193
v 0.177936 -0.011328 0.121126
v 0.177936 -0.011328 -0.099957
v 0.177936 -0.011328 -0.159024
v 0.177936 0.283312 -0.159025
v 0.177936 0.283312 -0.099957
v 0.177936 0.283312 0.121126
v 0.177936 0.283312 0.180193
v -0.169866 -0.003258 0.010584
v -0.169866 0.275242 0.010584
v 0.169866 -0.003258 0.010584
v 0.169866 0.275242 0.010584
vn -0.9947 -0.0000 0.1027
vn -0.0000 -0.0000 -1.0000
vn 0.9926 -0.0000 -0.1215
vn -0.0000 -0.0000 1.0000
vn -0.0000 -0.9926 -0.1215
vn -0.0000 0.9926 -0.1215
vn -0.0000 0.9947 0.1027
vn -0.0000 1.0000 -0.0000
vn -0.0000 0.9962 0.0872
vn -0.0000 -0.9947 0.1027
vn -0.0000 -1.0000 -0.0000
vn -0.0000 -0.9962 0.0872
vn 0.9947 -0.0000 0.1027
vn 1.0000 -0.0000 -0.0000
vn 0.9962 -0.0000 0.0872
vn -0.9926 -0.0000 -0.1215
vn -1.0000 -0.0000 -0.0000
vn -0.9962 -0.0000 -0.0872
vn -0.9962 -0.0000 0.0872
vn 0.9962 -0.0000 -0.0872
vn -0.0000 -0.9962 -0.0872
vn -0.0000 0.9962 -0.0872
vt 0.410190 0.129300
vt 0.349282 0.129300
vt 0.410190 0.129300
vt 0.349282 0.129300
vt 0.410190 0.129300
vt 0.349282 0.129300
vt 0.410190 0.129300
vt 0.349282 0.129300
vt 0.407224 0.129300
vt 0.132249 0.942317
vt 0.132249 0.942317
vt 0.407224 0.129300
vt 0.132249 0.942317
vt 0.407223 0.129300
vt 0.407223 0.129300
vt 0.132249 0.942317
vt 0.132249 0.942317
vt 0.352248 0.129300
vt 0.132249 0.942317
vt 0.352248 0.129300
vt 0.132249 0.942317
vt 0.352248 0.129300
vt 0.352248 0.129300
vt 0.132249 0.942317
vt 0.407223 0.129300
vt 0.132249 0.942317
vt 0.407223 0.129300
vt 0.132249 0.942317
vt 0.132249 0.942317
vt 0.407224 0.129300
vt 0.407224 0.129300
vt 0.132249 0.942317
vt 0.352248 0.129300
vt 0.132249 0.942317
vt 0.132249 0.942317
vt 0.352248 0.129300
vt 0.352248 0.129300
vt 0.132249 0.942317
vt 0.352248 0.129300
vt 0.132249 0.942317
vt 0.132249 0.942317
vt 0.132249 0.942317
vt 0.132249 0.942317
vt 0.132249 0.942317
vt 0.132249 0.942317
vt 0.132249 0.942317
vt 0.132249 0.942317
vt 0.132249 0.942317
vt 0.132249 0.942317
vt 0.132249 0.942317
vt 0.132249 0.942317
vt 0.132249 0.942317
vt 0.132249 0.942317
vt 0.132249 0.942317
vt 0.132249 0.942317
vt 0.132249 0.942317
vt 0.409277 0.129300
vt 0.350195 0.129300
vt 0.409277 0.129300
vt 0.350195 0.129300
s 1
usemtl Material.005
f 9/9/1 16/23/1 4/4/1 3/3/1
f 3/3/2 4/4/2 8/8/2 7/7/2
f 17/25/3 24/39/3 6/6/3 5/5/3
f 5/5/4 6/6/4 2/2/4 1/1/4
f 12/15/5 17/25/5 5/5/5 1/1/5
f 24/39/6 13/18/6 2/2/6 6/6/6
f 8/8/7 4/4/7 16/23/7 21/33/7
f 19/29/4 10/11/4 26/42/4 35/51/4
f 44/60/8 42/58/8 14/20/9 23/37/9
f 12/16/4 13/17/4 29/45/4 28/44/4
f 3/3/10 7/7/10 20/31/10 9/9/10
f 9/10/2 20/32/2 36/52/2 25/41/2
f 41/57/11 43/59/11 18/27/12 11/14/12
f 24/40/4 17/26/4 33/49/4 40/56/4
f 7/7/13 8/8/13 21/33/13 20/31/13
f 13/17/4 24/40/4 40/56/4 29/45/4
f 43/59/14 44/60/14 23/37/15 18/27/15
f 18/28/2 23/38/2 39/55/2 34/50/2
f 1/1/16 2/2/16 13/18/16 12/15/16
f 23/38/2 14/19/2 30/46/2 39/55/2
f 41/57/17 42/58/17 15/22/18 10/12/18
f 22/35/4 19/29/4 35/51/4 38/54/4
f 37/53/8 32/48/8 31/47/8 38/54/8
f 39/55/8 30/46/8 29/45/8 40/56/8
f 25/41/11 36/52/11 35/51/11 26/42/11
f 27/43/11 34/50/11 33/49/11 28/44/11
f 36/52/14 37/53/14 38/54/14 35/51/14
f 34/50/14 39/55/14 40/56/14 33/49/14
f 28/44/17 29/45/17 30/46/17 27/43/17
f 26/42/17 31/47/17 32/48/17 25/41/17
f 14/19/2 11/13/2 27/43/2 30/46/2
f 11/13/2 18/28/2 34/50/2 27/43/2
f 10/11/4 15/21/4 31/47/4 26/42/4
f 17/26/4 12/16/4 28/44/4 33/49/4
f 21/34/2 16/24/2 32/48/2 37/53/2
f 16/24/2 9/10/2 25/41/2 32/48/2
f 20/32/2 21/34/2 37/53/2 36/52/2
f 15/21/4 22/35/4 38/54/4 31/47/4
f 11/14/19 14/20/19 42/58/17 41/57/17
f 19/30/20 22/36/20 44/60/14 43/59/14
f 10/12/21 19/30/21 43/59/11 41/57/11
f 22/36/22 15/22/22 42/58/8 44/60/8
