# Blender 3.1.0
# www.blender.org
mtllib Picnic Table.mtl
o Picnic Table
v -0.405863 0.205841 0.173775
v -0.405863 0.249763 0.178397
v -0.385026 0.205841 -0.165364
v -0.385026 0.249763 -0.181657
v 0.379121 0.205841 0.173775
v 0.379121 0.249763 0.178397
v 0.385026 0.205841 -0.165364
v 0.385026 0.249763 -0.181657
v -0.217959 0.194109 0.084107
v 0.188584 0.207914 0.127745
v -0.212563 0.209914 0.127576
v 0.194136 0.192154 0.084279
v -0.262496 0.207700 0.084694
v 0.232650 0.222971 0.127914
v -0.257100 0.223504 0.128163
v 0.238202 0.207211 0.084448
v 0.254754 0.013371 0.206735
v 0.260306 -0.002389 0.163269
v 0.304371 0.012668 0.163438
v 0.298820 0.028428 0.206904
v -0.316134 0.026643 0.207066
v -0.321530 0.010839 0.163596
v -0.276994 -0.002752 0.163009
v -0.271598 0.013053 0.206479
v 0.197703 0.198671 -0.078852
v -0.206542 0.208685 -0.123725
v 0.193875 0.211106 -0.123564
v -0.211077 0.196483 -0.079014
v 0.242510 0.211350 -0.079161
v -0.250308 0.224592 -0.123823
v 0.238682 0.223785 -0.123874
v -0.254843 0.212391 -0.079112
v -0.278627 0.009984 -0.185262
v -0.283162 -0.002218 -0.140551
v -0.326928 0.013690 -0.140649
v -0.322393 0.025892 -0.185360
v 0.295844 0.020276 -0.185366
v 0.299672 0.007841 -0.140654
v 0.254865 -0.004838 -0.140344
v 0.251037 0.007597 -0.185057
vn -0.9982 -0.0079 -0.0595
vn -0.0000 -0.3478 -0.9376
vn 0.9999 0.0022 0.0169
vn -0.0000 -0.1047 0.9945
vn -0.0000 1.0000 -0.0000
vn -0.9463 -0.3233 -0.0036
vn 0.1192 -0.3384 -0.9334
vn 0.9463 0.3233 0.0036
vn -0.1192 0.3384 0.9334
vn -0.9564 0.2918 0.0126
vn -0.3006 0.8837 -0.3588
vn 0.2682 0.8942 -0.3584
vn 0.1159 0.3394 0.9335
vn 0.9564 -0.2918 -0.0126
vn -0.1159 -0.3394 -0.9335
vn 0.9398 -0.3416 0.0021
vn -0.0974 -0.2620 0.9601
vn -0.9398 0.3416 -0.0021
vn 0.0974 0.2620 -0.9601
vn 0.9622 0.2723 -0.0066
vn 0.3274 0.9026 0.2795
vn -0.2597 0.9244 0.2793
vn -0.0822 0.2670 -0.9602
vn -0.9622 -0.2723 0.0066
vn 0.0822 -0.2670 0.9602
vt 0.495040 0.885838
vt 0.499550 0.885838
vt 0.495040 0.885838
vt 0.499550 0.885838
vt 0.495040 0.885838
vt 0.499550 0.885838
vt 0.495040 0.885838
vt 0.499550 0.885838
vt 0.350098 0.881761
vt 0.350885 0.881761
vt 0.350981 0.881761
vt 0.349999 0.881761
vt 0.349762 0.881761
vt 0.350788 0.881761
vt 0.350646 0.881761
vt 0.349903 0.881761
vt 0.328674 0.881761
vt 0.327788 0.881761
vt 0.327692 0.881761
vt 0.328577 0.881761
vt 0.328485 0.881761
vt 0.327602 0.881761
vt 0.327937 0.881761
vt 0.328820 0.881761
vt 0.350098 0.881761
vt 0.350885 0.881761
vt 0.350981 0.881761
vt 0.349999 0.881761
vt 0.349762 0.881761
vt 0.350788 0.881761
vt 0.350646 0.881761
vt 0.349903 0.881761
vt 0.328674 0.881761
vt 0.327788 0.881761
vt 0.327692 0.881761
vt 0.328577 0.881761
vt 0.328485 0.881761
vt 0.327602 0.881761
vt 0.327937 0.881761
vt 0.328820 0.881761
s 1
usemtl Material.005
f 1/1/1 2/2/1 4/4/1 3/3/1
f 3/3/2 4/4/2 8/8/2 7/7/2
f 7/7/3 8/8/3 6/6/3 5/5/3
f 5/5/4 6/6/4 2/2/4 1/1/4
f 8/8/5 4/4/5 2/2/5 6/6/5
f 17/17/6 10/10/6 12/12/6 18/18/6
f 18/18/7 12/12/7 16/16/7 19/19/7
f 19/19/8 16/16/8 14/14/8 20/20/8
f 20/20/9 14/14/9 10/10/9 17/17/9
f 21/21/10 15/15/10 13/13/10 22/22/10
f 16/16/11 12/12/11 10/10/11 14/14/11
f 9/9/12 13/13/12 15/15/12 11/11/12
f 24/24/13 11/11/13 15/15/13 21/21/13
f 23/23/14 9/9/14 11/11/14 24/24/14
f 22/22/15 13/13/15 9/9/15 23/23/15
f 33/33/16 26/26/16 28/28/16 34/34/16
f 34/34/17 28/28/17 32/32/17 35/35/17
f 35/35/18 32/32/18 30/30/18 36/36/18
f 36/36/19 30/30/19 26/26/19 33/33/19
f 37/37/20 31/31/20 29/29/20 38/38/20
f 32/32/21 28/28/21 26/26/21 30/30/21
f 25/25/22 29/29/22 31/31/22 27/27/22
f 40/40/23 27/27/23 31/31/23 37/37/23
f 39/39/24 25/25/24 27/27/24 40/40/24
f 38/38/25 29/29/25 25/25/25 39/39/25
