# Blender 3.1.0
# www.blender.org
mtllib Tree_Tall.mtl
o Tree_Tall
v 0.000798 -0.000000 -0.082196
v -0.000056 0.395233 -0.037938
v 0.059119 -0.000000 -0.019472
v 0.035343 0.395233 -0.012219
v 0.036530 -0.000000 0.050050
v 0.021822 0.395233 0.029395
v -0.038201 -0.000000 0.059362
v -0.021934 0.395233 0.029395
v -0.059159 -0.000000 -0.019472
v -0.035455 0.395233 -0.012219
v -0.188111 0.420820 0.188111
v -0.101254 1.346753 0.101255
v -0.188111 0.420820 -0.188111
v -0.101254 1.346753 -0.101255
v 0.188112 0.420820 0.188111
v 0.101256 1.346753 0.101255
v 0.188112 0.420820 -0.188111
v 0.101256 1.346753 -0.101255
v -0.166842 0.971979 0.166843
v -0.166842 0.971979 -0.166843
v 0.166844 0.971979 -0.166843
v 0.166844 0.971979 0.166843
v 0.000001 0.371146 -0.209012
v 0.000001 1.373491 -0.112505
v 0.000001 0.371146 0.209013
v 0.000001 1.373491 0.112506
v 0.000001 0.954573 0.208673
v 0.000001 0.954573 -0.208673
v -0.209012 0.371146 0.000000
v -0.112505 1.373491 0.000000
v 0.209013 0.371146 0.000000
v 0.112506 1.373491 0.000000
v 0.208674 0.954573 0.000000
v -0.208672 0.954573 0.000000
v 0.000001 1.426967 0.000000
v 0.000001 0.323423 0.000000
v -0.205431 0.379655 0.117473
v -0.120928 1.244459 0.120929
v -0.110578 1.368911 -0.063232
v -0.201617 0.603463 -0.201618
v -0.117472 0.379655 -0.205432
v 0.063233 1.368911 -0.110578
v 0.201619 0.603463 -0.201618
v 0.205433 0.379655 -0.117473
v 0.110579 1.368911 0.063232
v 0.201618 0.603463 0.201618
v 0.117473 0.379655 0.205432
v -0.063232 1.368911 0.110578
v -0.201617 0.603463 0.201618
v -0.120928 1.244459 -0.120929
v 0.120930 1.244459 -0.120929
v 0.120930 1.244459 0.120929
v -0.096712 0.968639 0.197631
v 0.197631 0.968639 0.096713
v 0.096714 0.968639 -0.197630
v -0.197630 0.968639 -0.096713
v 0.117473 0.379655 -0.205432
v -0.063232 1.368911 -0.110578
v -0.117472 0.379655 0.205432
v 0.063233 1.368911 0.110578
v 0.096713 0.968639 0.197631
v -0.096712 0.968639 -0.197630
v 0.000001 0.589327 -0.243424
v 0.000001 0.589327 0.243425
v 0.000001 1.420282 0.064691
v 0.000001 0.294128 0.120182
v 0.000001 1.242117 0.151107
v 0.000001 1.242117 -0.151107
v -0.205431 0.379655 -0.117473
v -0.110578 1.368911 0.063232
v 0.205433 0.379655 0.117473
v 0.110579 1.368911 -0.063232
v 0.197631 0.968639 -0.096713
v -0.197630 0.968639 0.096713
v 0.000001 1.420282 -0.064690
v 0.000001 0.294128 -0.120182
v -0.120181 0.294128 0.000000
v 0.064691 1.420282 0.000000
v -0.243424 0.589327 0.000000
v 0.243425 0.589327 0.000000
v -0.064690 1.420282 0.000000
v 0.120183 0.294128 0.000000
v 0.151107 1.242117 0.000000
v -0.151106 1.242117 0.000000
v -0.143621 1.245358 -0.071349
v 0.071349 1.245358 -0.143622
v 0.143622 1.245358 0.071349
v -0.071348 1.245358 0.143622
v 0.119506 0.296176 0.119505
v -0.064325 1.413845 0.064326
v -0.117672 0.596131 0.236871
v 0.236871 0.596131 0.117673
v 0.117674 0.596131 -0.236871
v -0.236870 0.596131 -0.117673
v -0.117672 0.596131 -0.236871
v 0.117674 0.596131 0.236871
v 0.064327 1.413845 0.064326
v -0.119504 0.296176 0.119505
v 0.071349 1.245358 0.143622
v -0.071348 1.245358 -0.143622
v -0.119504 0.296176 -0.119505
v 0.064327 1.413845 -0.064326
v -0.236870 0.596131 0.117673
v 0.236871 0.596131 -0.117673
v -0.064325 1.413845 -0.064326
v 0.119506 0.296176 -0.119505
v 0.143622 1.245358 -0.071349
v -0.143621 1.245358 0.071349
vn 0.0042 -0.5165 -0.8563
vn 0.0033 0.0929 -0.9957
vn 0.9664 0.0710 -0.2469
vn 0.7825 -0.5893 -0.2011
vn 0.6179 0.0691 0.7832
vn 0.5019 -0.5834 0.6386
vn -0.5724 0.0774 0.8163
vn -0.4756 -0.5458 0.6899
vn -0.9606 0.0726 -0.2682
vn -0.7755 -0.5928 -0.2170
vn -0.9894 0.1451 -0.0000
vn -0.9723 0.2338 -0.0000
vn -0.9421 0.2374 -0.2367
vn -0.9577 0.1613 -0.2385
vn -0.8554 0.5179 -0.0000
vn -0.8111 0.5107 -0.2850
vn -0.6551 0.3764 -0.6551
vn -0.6849 0.2488 -0.6849
vn -0.6957 0.1789 -0.6957
vn -0.0000 0.1451 -0.9894
vn -0.0000 0.2338 -0.9723
vn 0.2367 0.2374 -0.9421
vn 0.2385 0.1613 -0.9577
vn -0.0000 0.5179 -0.8554
vn 0.2850 0.5107 -0.8111
vn 0.6551 0.3764 -0.6551
vn 0.6849 0.2488 -0.6849
vn 0.6957 0.1789 -0.6957
vn 0.9894 0.1451 -0.0000
vn 0.9723 0.2338 -0.0000
vn 0.9421 0.2374 0.2367
vn 0.9577 0.1613 0.2385
vn 0.8554 0.5179 -0.0000
vn 0.8111 0.5107 0.2850
vn 0.6551 0.3764 0.6551
vn 0.6849 0.2488 0.6849
vn 0.6957 0.1789 0.6957
vn -0.0000 0.1451 0.9894
vn -0.0000 0.2338 0.9723
vn -0.2367 0.2374 0.9421
vn -0.2385 0.1613 0.9577
vn -0.0000 0.5179 0.8554
vn -0.2850 0.5107 0.8111
vn -0.6551 0.3764 0.6551
vn -0.6849 0.2488 0.6849
vn -0.6957 0.1789 0.6957
vn -0.0000 -1.0000 -0.0000
vn 0.3112 -0.9503 -0.0000
vn 0.3091 -0.8994 0.3091
vn -0.0000 -0.9503 0.3112
vn 0.8779 -0.4789 -0.0000
vn 0.8405 -0.4676 0.2736
vn 0.6783 -0.2824 0.6783
vn 0.2736 -0.4676 0.8405
vn -0.0000 -0.4789 0.8779
vn -0.0000 1.0000 -0.0000
vn -0.4169 0.9090 -0.0000
vn -0.3762 0.8467 0.3762
vn -0.0000 0.9090 0.4169
vn -0.8111 0.5107 0.2850
vn -0.0000 -0.0288 0.9996
vn -0.2193 -0.0120 0.9756
vn -0.2736 -0.4676 0.8405
vn -0.7071 0.0083 0.7071
vn -0.6783 -0.2824 0.6783
vn 0.9996 -0.0288 -0.0000
vn 0.9756 -0.0120 0.2193
vn 0.7071 0.0083 0.7071
vn -0.0000 -0.4789 -0.8779
vn -0.0000 -0.0288 -0.9996
vn 0.2193 -0.0120 -0.9756
vn 0.2736 -0.4676 -0.8405
vn 0.7071 0.0083 -0.7071
vn 0.6783 -0.2824 -0.6783
vn -0.8779 -0.4789 -0.0000
vn -0.9996 -0.0288 -0.0000
vn -0.9756 -0.0120 -0.2193
vn -0.8405 -0.4676 -0.2736
vn -0.7071 0.0083 -0.7071
vn -0.6783 -0.2824 -0.6783
vn -0.2193 -0.0120 -0.9756
vn -0.2736 -0.4676 -0.8405
vn -0.2385 0.1613 -0.9577
vn 0.2193 -0.0120 0.9756
vn 0.2385 0.1613 0.9577
vn 0.4169 0.9090 -0.0000
vn 0.3762 0.8467 0.3762
vn 0.2850 0.5107 0.8111
vn -0.3112 -0.9503 -0.0000
vn -0.3091 -0.8994 0.3091
vn -0.8405 -0.4676 0.2736
vn 0.2367 0.2374 0.9421
vn -0.2367 0.2374 -0.9421
vn -0.2850 0.5107 -0.8111
vn -0.3091 -0.8994 -0.3091
vn -0.0000 -0.9503 -0.3112
vn 0.3762 0.8467 -0.3762
vn 0.8111 0.5107 -0.2850
vn -0.0000 0.9090 -0.4169
vn -0.9756 -0.0120 0.2193
vn -0.9577 0.1613 0.2385
vn 0.9756 -0.0120 -0.2193
vn 0.8405 -0.4676 -0.2736
vn 0.9577 0.1613 -0.2385
vn -0.3762 0.8467 -0.3762
vn 0.3091 -0.8994 -0.3091
vn 0.9421 0.2374 -0.2367
vn -0.9421 0.2374 0.2367
vt 0.204755 0.880859
vt 0.447589 0.880859
vt 0.204755 0.880859
vt 0.447589 0.880859
vt 0.204755 0.880859
vt 0.447589 0.880859
vt 0.204755 0.880859
vt 0.447589 0.880859
vt 0.204755 0.880859
vt 0.447589 0.880859
vt 0.274566 0.629912
vt 0.066974 0.629912
vt 0.274566 0.629912
vt 0.066974 0.629912
vt 0.274566 0.629912
vt 0.066974 0.629912
vt 0.274566 0.629912
vt 0.066974 0.629912
vt 0.194208 0.629912
vt 0.194208 0.629912
vt 0.194208 0.629912
vt 0.194208 0.629912
vt 0.288703 0.629912
vt 0.052837 0.629912
vt 0.288703 0.629912
vt 0.052837 0.629912
vt 0.194208 0.629912
vt 0.194208 0.629912
vt 0.288703 0.629912
vt 0.052837 0.629912
vt 0.288703 0.629912
vt 0.052837 0.629912
vt 0.194208 0.629912
vt 0.194208 0.629912
vt 0.024563 0.629912
vt 0.302285 0.629912
vt 0.286281 0.629912
vt 0.114752 0.629912
vt 0.055259 0.629912
vt 0.241437 0.629912
vt 0.286282 0.629912
vt 0.055259 0.629912
vt 0.241437 0.629912
vt 0.286282 0.629912
vt 0.055259 0.629912
vt 0.241437 0.629912
vt 0.286281 0.629912
vt 0.055259 0.629912
vt 0.241437 0.629912
vt 0.114752 0.629912
vt 0.114752 0.629912
vt 0.114752 0.629912
vt 0.194208 0.629912
vt 0.194208 0.629912
vt 0.194208 0.629912
vt 0.194208 0.629912
vt 0.286282 0.629912
vt 0.055259 0.629912
vt 0.286281 0.629912
vt 0.055259 0.629912
vt 0.194208 0.629912
vt 0.194208 0.629912
vt 0.243269 0.629912
vt 0.243269 0.629912
vt 0.028097 0.629912
vt 0.310623 0.629912
vt 0.112919 0.629912
vt 0.112919 0.629912
vt 0.286281 0.629912
vt 0.055259 0.629912
vt 0.286281 0.629912
vt 0.055259 0.629912
vt 0.194208 0.629912
vt 0.194208 0.629912
vt 0.028097 0.629912
vt 0.310623 0.629912
vt 0.310623 0.629912
vt 0.028097 0.629912
vt 0.243269 0.629912
vt 0.243269 0.629912
vt 0.028097 0.629912
vt 0.310623 0.629912
vt 0.112919 0.629912
vt 0.112919 0.629912
vt 0.113378 0.629912
vt 0.113378 0.629912
vt 0.113378 0.629912
vt 0.113378 0.629912
vt 0.310040 0.629912
vt 0.031500 0.629912
vt 0.242811 0.629912
vt 0.242811 0.629912
vt 0.242811 0.629912
vt 0.242811 0.629912
vt 0.242811 0.629912
vt 0.242811 0.629912
vt 0.031500 0.629912
vt 0.310040 0.629912
vt 0.113378 0.629912
vt 0.113378 0.629912
vt 0.310040 0.629912
vt 0.031500 0.629912
vt 0.242811 0.629912
vt 0.242811 0.629912
vt 0.031500 0.629912
vt 0.310040 0.629912
vt 0.113378 0.629912
vt 0.113378 0.629912
s 1
usemtl Material.005
f 1/1/1 2/2/2 4/4/3 3/3/4
f 3/3/4 4/4/3 6/6/5 5/5/6
f 5/5/6 6/6/5 8/8/7 7/7/8
f 7/7/8 8/8/7 10/10/9 9/9/10
f 9/9/10 10/10/9 2/2/2 1/1/1
f 34/34/11 84/84/12 85/85/13 56/56/14
f 84/84/12 30/30/15 39/39/16 85/85/13
f 85/85/13 39/39/16 14/14/17 50/50/18
f 56/56/14 85/85/13 50/50/18 20/20/19
f 28/28/20 68/68/21 86/86/22 55/55/23
f 68/68/21 24/24/24 42/42/25 86/86/22
f 86/86/22 42/42/25 18/18/26 51/51/27
f 55/55/23 86/86/22 51/51/27 21/21/28
f 33/33/29 83/83/30 87/87/31 54/54/32
f 83/83/30 32/32/33 45/45/34 87/87/31
f 87/87/31 45/45/34 16/16/35 52/52/36
f 54/54/32 87/87/31 52/52/36 22/22/37
f 27/27/38 67/67/39 88/88/40 53/53/41
f 67/67/39 26/26/42 48/48/43 88/88/40
f 88/88/40 48/48/43 12/12/44 38/38/45
f 53/53/41 88/88/40 38/38/45 19/19/46
f 36/36/47 82/82/48 89/89/49 66/66/50
f 82/82/48 31/31/51 71/71/52 89/89/49
f 89/89/49 71/71/52 15/15/53 47/47/54
f 66/66/50 89/89/49 47/47/54 25/25/55
f 35/35/56 81/81/57 90/90/58 65/65/59
f 81/81/57 30/30/15 70/70/60 90/90/58
f 90/90/58 70/70/60 12/12/44 48/48/43
f 65/65/59 90/90/58 48/48/43 26/26/42
f 25/25/55 64/64/61 91/91/62 59/59/63
f 64/64/61 27/27/38 53/53/41 91/91/62
f 91/91/62 53/53/41 19/19/46 49/49/64
f 59/59/63 91/91/62 49/49/64 11/11/65
f 31/31/51 80/80/66 92/92/67 71/71/52
f 80/80/66 33/33/29 54/54/32 92/92/67
f 92/92/67 54/54/32 22/22/37 46/46/68
f 71/71/52 92/92/67 46/46/68 15/15/53
f 23/23/69 63/63/70 93/93/71 57/57/72
f 63/63/70 28/28/20 55/55/23 93/93/71
f 93/93/71 55/55/23 21/21/28 43/43/73
f 57/57/72 93/93/71 43/43/73 17/17/74
f 29/29/75 79/79/76 94/94/77 69/69/78
f 79/79/76 34/34/11 56/56/14 94/94/77
f 94/94/77 56/56/14 20/20/19 40/40/79
f 69/69/78 94/94/77 40/40/79 13/13/80
f 13/13/80 40/40/79 95/95/81 41/41/82
f 40/40/79 20/20/19 62/62/83 95/95/81
f 95/95/81 62/62/83 28/28/20 63/63/70
f 41/41/82 95/95/81 63/63/70 23/23/69
f 15/15/53 46/46/68 96/96/84 47/47/54
f 46/46/68 22/22/37 61/61/85 96/96/84
f 96/96/84 61/61/85 27/27/38 64/64/61
f 47/47/54 96/96/84 64/64/61 25/25/55
f 32/32/33 78/78/86 97/97/87 45/45/34
f 78/78/86 35/35/56 65/65/59 97/97/87
f 97/97/87 65/65/59 26/26/42 60/60/88
f 45/45/34 97/97/87 60/60/88 16/16/35
f 29/29/75 77/77/89 98/98/90 37/37/91
f 77/77/89 36/36/47 66/66/50 98/98/90
f 98/98/90 66/66/50 25/25/55 59/59/63
f 37/37/91 98/98/90 59/59/63 11/11/65
f 22/22/37 52/52/36 99/99/92 61/61/85
f 52/52/36 16/16/35 60/60/88 99/99/92
f 99/99/92 60/60/88 26/26/42 67/67/39
f 61/61/85 99/99/92 67/67/39 27/27/38
f 20/20/19 50/50/18 100/100/93 62/62/83
f 50/50/18 14/14/17 58/58/94 100/100/93
f 100/100/93 58/58/94 24/24/24 68/68/21
f 62/62/83 100/100/93 68/68/21 28/28/20
f 13/13/80 41/41/82 101/101/95 69/69/78
f 41/41/82 23/23/69 76/76/96 101/101/95
f 101/101/95 76/76/96 36/36/47 77/77/89
f 69/69/78 101/101/95 77/77/89 29/29/75
f 18/18/26 42/42/25 102/102/97 72/72/98
f 42/42/25 24/24/24 75/75/99 102/102/97
f 102/102/97 75/75/99 35/35/56 78/78/86
f 72/72/98 102/102/97 78/78/86 32/32/33
f 11/11/65 49/49/64 103/103/100 37/37/91
f 49/49/64 19/19/46 74/74/101 103/103/100
f 103/103/100 74/74/101 34/34/11 79/79/76
f 37/37/91 103/103/100 79/79/76 29/29/75
f 17/17/74 43/43/73 104/104/102 44/44/103
f 43/43/73 21/21/28 73/73/104 104/104/102
f 104/104/102 73/73/104 33/33/29 80/80/66
f 44/44/103 104/104/102 80/80/66 31/31/51
f 24/24/24 58/58/94 105/105/105 75/75/99
f 58/58/94 14/14/17 39/39/16 105/105/105
f 105/105/105 39/39/16 30/30/15 81/81/57
f 75/75/99 105/105/105 81/81/57 35/35/56
f 23/23/69 57/57/72 106/106/106 76/76/96
f 57/57/72 17/17/74 44/44/103 106/106/106
f 106/106/106 44/44/103 31/31/51 82/82/48
f 76/76/96 106/106/106 82/82/48 36/36/47
f 21/21/28 51/51/27 107/107/107 73/73/104
f 51/51/27 18/18/26 72/72/98 107/107/107
f 107/107/107 72/72/98 32/32/33 83/83/30
f 73/73/104 107/107/107 83/83/30 33/33/29
f 19/19/46 38/38/45 108/108/108 74/74/101
f 38/38/45 12/12/44 70/70/60 108/108/108
f 108/108/108 70/70/60 30/30/15 84/84/12
f 74/74/101 108/108/108 84/84/12 34/34/11
f 1/1/1 3/3/4 5/5/6 7/7/8 9/9/10
