# Blender 3.1.0
# www.blender.org
mtllib wheat.mtl
o Plane.001
v -0.096291 -0.043266 0.529974
v -0.424641 1.926055 0.438105
v 0.129990 -0.050698 -0.438105
v -0.198360 1.918623 -0.529974
v 0.528561 -0.019521 0.040481
v 0.444781 1.960837 -0.067395
v -0.444781 -0.085480 -0.151063
v -0.528561 1.894878 -0.043637
v -0.116441 -0.074978 -0.430470
v -0.038274 1.920183 -0.518246
v 0.179300 -0.044826 0.518246
v 0.257466 1.950334 0.430470
vn -0.9447 -0.1678 -0.2195
vn 0.1558 -0.0191 0.5271
vn 0.9501 -0.0584 0.0778
vt 0.751370 0.009684
vt 0.751370 0.990316
vt 0.248630 0.009684
vt 0.248630 0.990316
vt 0.751370 0.009684
vt 0.751370 0.990316
vt 0.248630 0.009684
vt 0.248630 0.990316
vt 0.751370 0.009684
vt 0.751370 0.990316
vt 0.248630 0.009684
vt 0.248630 0.990316
s 0
usemtl Material.001
f 1/1/1 2/2/1 4/4/1 3/3/1
f 5/5/2 6/6/2 8/8/2 7/7/2
f 9/9/3 10/10/3 12/12/3 11/11/3
